# xmcd CD database file
#
# Track frame offsets:
#	150
#	32230
#	64812
#	88420
#	127430
#	145325
#
# Disc length: 2497 seconds
#
# Revision: 0
# Processed by: cddbd v1.5.2PL0 Copyright (c) Steve Scherf et al.
# Submitted via: CDex 1.70beta2
#
DISCID=6109bf06
DTITLE=坂田明 - おむすび
DYEAR=1900
DGENRE=Jazz
TTITLE0=おむすび
TTITLE1=My Funny Valentine
TTITLE2=星めぐりの歌
TTITLE3=死んだ男の残したものは
TTITLE4=Memories Of You
TTITLE5=おむすび（うす塩編）
EXTD=
EXTT0=
EXTT1=
EXTT2=
EXTT3=
EXTT4=
EXTT5=
PLAYORDER=
